<?xml version="1.0" encoding="utf-8"?>
<!-- Generator: Adobe Illustrator 28.2.0, SVG Export Plug-In . SVG Version: 6.00 Build 0)  -->
<svg version="1.1" id="Layer_1" xmlns="http://www.w3.org/2000/svg" xmlns:xlink="http://www.w3.org/1999/xlink" x="0px" y="0px"
	 viewBox="0 0 2000 2000" style="enable-background:new 0 0 2000 2000;" xml:space="preserve">
<style type="text/css">
	.st0{stroke:#000000;stroke-miterlimit:10;}
	.st1{fill:#FFFFFF;stroke:#000000;stroke-miterlimit:10;}
	.st2{fill:#231F20;stroke:#000000;stroke-miterlimit:10;}
	.st3{fill:#ED1C24;stroke:#000000;stroke-miterlimit:10;}
</style>
<path class="st0" d="M159.1,693.8h375.3c19.1,1.9,43.9,5.7,72,13.8c43.1,12.4,73,28.8,80.4,32.9c17.5,9.8,42.5,24,68.9,50.5
	c5.5,5.5,26,26.6,45.2,59.7c14.2,24.6,21.4,44.9,27.6,62.8c2.8,8.1,13.9,41,20.7,86.5c3.6,24.2,6.5,55.5,5.4,91.9
	c99.6,0,199.2,0,298.7,0V718.3l101.1,3.1l240.5,309.5L1747.7,706h91.9v1034h-121l3.1-807.3l-205.3,269.6h-33.7l-211.4-269.6v468.8
	l168.5-3.1v44.4h-169.3v37.5l170-1.5v42.1l-170-0.8v219.8H555.9l-1.5-121.8c15.4-2.2,33-5.8,52.1-11.5c22.1-6.6,41-14.5,56.7-22.2
	c0.3,24.5,0.5,49,0.8,73.5l487.9,1.5v-448.8l-296.4-2.3c-2.4,16.4-6.2,39.7-12.3,67.4c-7.8,35.6-12.2,56.2-21.5,79.7
	c-17.6,44.9-42.5,74.5-56.7,91.2c-18.1,21.2-47.6,55.1-96.5,79.7c-29.1,14.6-54.9,20.5-106.5,32.2c-30.3,6.9-56,11.1-74.3,13.8
	c-111.6-0.8-223.1-1.5-334.7-2.3V690.7L159.1,693.8z"/>
<path class="st1" d="M274,808.7l1.5,642.6h215.2c25.5-0.3,67.2-4.4,111.8-26.8c19.7-9.9,69.5-34.9,98-88.8
	c12.6-23.8,18.1-47.7,25.3-78.9c6.1-26.4,9.1-48.9,10.7-65.1c0-40.3,0-80.7,0-121c-0.5-4.2-1.3-10.9-2.3-19.2
	c-3.2-27-4.9-42.6-5.4-46.7c-5.9-49.5-30.6-90.4-30.6-90.4c-4.9-8.1-20.2-32.1-48.3-55.2c-6.8-5.6-25.9-20.5-54.4-32.9
	c-24.9-10.8-47.4-15.5-63.6-17.6C446.1,808.7,360.1,808.7,274,808.7z"/>
<path class="st0" d="M553.6,868.4l2,514.4c14.3-3.1,44.6-11.9,72.3-38c19.5-18.4,29.9-38.1,35.2-50.6
	c-0.8-112.6-1.5-225.2-2.3-337.8c-7.4-19.6-17.5-32.8-24.5-40.6c-16.7-18.6-35.1-27.6-49-34.5C574,874.9,562.2,870.9,553.6,868.4z"
	/>
<path class="st0" d="M2027,936.3"/>
<polygon class="st0" points="1332.6,1093.1 1332.6,1362.2 1438.8,1362.2 1438.8,1232 "/>
<rect x="1332.6" y="1559.8" class="st0" width="106.2" height="176.2"/>
<path class="st0" d="M1366.3,783.1l72.5,91.9l-1-619.9c5.2-10.5,11.8-22.1,20.1-34.4c9.1-13.4,18.4-24.5,26.9-33.7
	c-324.8,0.2-649.5,0.4-974.3,0.7c7.8,8.1,16.2,17.6,24.5,28.6c8.2,10.8,14.9,21.1,20.4,30.6c-0.6,132.1-1.2,264.2-1.8,396.3
	c10.1,0.9,21.4,2.6,33.8,5.5c13.5,3.1,25.3,7,35.4,10.9c1-135.5,2-271,3.1-406.5h740.4V783.1z"/>
<path class="st2" d="M663.1,668.7l61.8,36.8c0.8-13.7,2.5-31.9,6.1-53.1c2.8-16.2,5.9-34.2,13.3-56.2c3.1-9.2,11-32.6,25.5-56.2
	c21.9-35.7,48.9-55.7,81.7-79.7c31.3-22.8,38.9-23,78.6-50c29.5-20.1,52.4-38.4,67.4-51.1c8.6,7.5,21.8,18.5,38.8,30.6
	c17.2,12.3,27.7,18.2,48,30.6c35.9,22.1,53.8,33.1,70.5,46c4.8,3.8,34.7,27,58.2,58.2c38.6,51,49.2,108.4,52.1,146
	c4.4,0.3,8.8,0.7,13.3,1l53.1,67.4V289.9H663.1V668.7z"/>
<polygon class="st1" points="716.7,349.1 716.7,519.6 755.5,472.7 755.5,386.9 865.8,386.9 912.8,349.1 "/>
<polygon class="st1" points="1079.3,349.1 1129.3,384.8 1241.7,384.8 1241.7,474.7 1275.4,514.5 1275.4,349.1 "/>
<path class="st1" d="M707.5,531"/>
<path class="st3" d="M762.2,733.6l71.5,75.1c0.1-34.2,0.1-60.4,0-76.1c-0.2-38.5-0.5-56.4,5.6-81.7c2.1-8.9,5.2-21.2,12.3-36.3
	c13-27.7,30.4-44.6,42.4-56.2c18-17.3,35-27.9,68.9-49c15.1-9.4,28-16.8,37.1-22c16.2,9,39.3,22.7,65.5,41.9
	c29.2,21.4,45.3,33.2,60.3,53.1c10.6,14.1,27.7,41.9,33.2,86.3c24.3,0.5,48.7,1,73,1.5c-2.4-27.4-10-64.5-32.2-101.6
	c-15.9-26.6-33.9-44.4-43.4-53.6c-21.6-21-42.1-34.3-58.7-44.9c-26-16.7-33.8-18-58.7-34.7c-19.2-12.8-33.7-24.8-42.6-32.7
	c-6.5,5.8-16.8,14.5-30.4,24c-11,7.6-16.1,10.2-35.7,22.5c-12.8,8-21.7,13.9-34.7,22.5c-27.3,18-41,27-46,31.1
	c-23.2,19.3-35.7,39.9-52.1,66.9c-11.7,19.2-18.3,30.2-24,47.5c-6.4,19.5-7.7,35.2-9.7,60.8C762.6,692.2,761.6,711.1,762.2,733.6z"
	/>
<polygon class="st3" points="724.9,1547.6 833.2,1440.8 833.2,1561.3 1118.1,1561.3 1118.1,1629.8 724.9,1629.8 "/>
</svg>
